<svg width="157" height="61" viewBox="0 0 157 61" fill="none" xmlns="http://www.w3.org/2000/svg">
<path d="M25.8286 43.9247H54.6224C56.3895 40.4498 57.4902 36.5566 57.751 32.4617H32.6361C31.9407 37.1045 29.4206 41.1707 25.8286 43.9247Z" fill="#0575D5"/>
<path d="M25.8286 15.6299C29.8424 18.7094 32.5087 23.4594 32.7984 28.8341H57.751C57.4612 24.0406 56.0266 19.552 53.7227 15.6299H25.8286Z" fill="#0575D5"/>
<path d="M14.9421 11.8311H51.2202C45.7886 5.20459 37.5107 0.974609 28.2305 0.974609C16.2927 0.974609 5.99605 7.99089 1.30518 18.0966C4.58733 14.2709 9.48153 11.8311 14.9421 11.8311Z" fill="#0575D5"/>
<path d="M14.9812 47.6338C8.71863 47.6338 3.21168 44.4292 0.000488281 39.5718C3.82194 51.5197 15.0393 60.1762 28.2763 60.1762C38.3022 60.1762 47.1511 55.2172 52.5273 47.6338H14.9812Z" fill="#0575D5"/>
<path d="M12.0454 22.9575C12.0454 25.5614 9.93339 27.6733 7.32957 27.6733C4.72575 27.6733 2.61377 25.5614 2.61377 22.9575C2.61377 20.3537 4.72575 18.2417 7.32957 18.2417C9.93339 18.2417 12.0454 20.3537 12.0454 22.9575Z" fill="#0575D5"/>
<path d="M78.5288 19.2665H82.7528L83.583 21.1294H86.0445L81.6458 11.8574H79.6212L75.4993 20.6384L74.0572 17.75C73.7514 17.1578 73.3873 16.6812 72.9649 16.349C72.8192 16.2335 72.659 16.1613 72.4842 16.0601L75.2953 11.8574H72.6299L70.3139 15.5836H69.3236V11.8574H66.8911V21.1439H69.3236V17.5189H70.2702C70.6926 17.5189 71.0422 17.5911 71.2899 17.75C71.5521 17.9089 71.7559 18.1688 71.9161 18.5443L73.1541 21.1439H75.2953H75.7905H77.7277L78.5288 19.2665ZM80.6263 14.3704H80.699L81.9953 17.4177H79.3445L80.6263 14.3704Z" fill="#0575D5"/>
<path d="M88.3054 20.549C88.6991 20.1863 89.0198 19.751 89.2968 19.2431C89.5738 18.7352 89.7778 18.1693 89.9236 17.5164C90.0693 16.8779 90.1423 16.1524 90.1423 15.3399V13.8018H92.7516V21.1729H95.186V11.8574H87.8973V14.7595C87.8973 15.4705 87.8536 16.0799 87.7806 16.6168C87.7078 17.1391 87.5766 17.6034 87.4016 17.9807C87.2267 18.358 87.0081 18.6917 86.7311 18.9674C86.4541 19.2431 86.1334 19.4898 85.7544 19.7219L86.9643 21.4341C87.4746 21.202 87.9119 20.9118 88.3054 20.549Z" fill="#0575D5"/>
<path d="M98.2048 21.1439H100.744L105.634 11.8574H103.123L100.861 16.1324L98.2195 11.8574H95.6216L99.7081 18.2843L98.2048 21.1439Z" fill="#0575D5"/>
<path d="M108.029 16.349C107.606 16.6812 107.241 17.1578 106.92 17.75L105.2 21.1439H107.839L109.093 18.5443C109.268 18.1688 109.472 17.9089 109.72 17.75C109.968 17.5911 110.304 17.5189 110.726 17.5189H111.368V21.1439H113.701V17.5189H114.343C114.751 17.5189 115.087 17.5911 115.334 17.75C115.597 17.9089 115.801 18.1688 115.976 18.5443L117.216 21.1439H119.855L118.134 17.75C117.828 17.1578 117.478 16.6812 117.055 16.349C116.909 16.2335 116.749 16.1613 116.574 16.0601L119.359 11.8574H116.72L114.387 15.5836H113.716V11.8574H111.383V15.5836H110.712L108.349 11.8574H105.71L108.51 16.0601C108.335 16.1468 108.174 16.2335 108.029 16.349Z" fill="#0575D5"/>
<path d="M122.45 20.6965C123.185 21.1009 124.063 21.2886 125.057 21.2886C125.691 21.2886 126.267 21.202 126.786 21.0286C127.304 20.8554 127.751 20.6097 128.126 20.2919L127.391 18.3853C126.988 18.6742 126.613 18.8765 126.282 18.992C125.95 19.1075 125.561 19.1654 125.129 19.1654C124.337 19.1654 123.732 18.9342 123.314 18.4719C122.882 18.0098 122.68 17.3453 122.68 16.493C122.68 15.6263 122.896 14.9764 123.314 14.5141C123.732 14.0519 124.351 13.8353 125.129 13.8353C125.561 13.8353 125.936 13.893 126.282 14.0086C126.613 14.1242 126.988 14.3264 127.391 14.6153L128.126 12.7086C127.751 12.3908 127.319 12.1452 126.786 11.9719C126.267 11.7986 125.691 11.7119 125.043 11.7119C124.034 11.7119 123.17 11.9141 122.435 12.3041C121.701 12.7086 121.139 13.2575 120.736 13.9653C120.332 14.673 120.145 15.5253 120.145 16.493C120.145 17.4608 120.347 18.313 120.736 19.0353C121.153 19.743 121.715 20.3064 122.45 20.6965Z" fill="#0575D5"/>
<path d="M152.371 11.8574C151.297 11.8574 150.455 12.117 149.875 12.6217C149.28 13.1264 148.99 13.833 148.99 14.7558C148.99 15.6499 149.28 16.3564 149.875 16.8756C150.223 17.1784 150.659 17.3803 151.166 17.5101C151.021 17.5534 150.876 17.611 150.746 17.6831C150.455 17.8562 150.209 18.1302 149.991 18.5051L148.497 21.1296L144.129 11.8718H142.112L138.006 20.6393L136.569 17.7552C136.264 17.1639 135.902 16.6881 135.481 16.3564C135.336 16.2411 135.176 16.169 135.002 16.0681L137.803 11.8718H135.147L132.84 15.5922H131.853V11.8574H129.43V21.1296H131.853V17.5101H132.797C133.217 17.5101 133.566 17.5821 133.812 17.7409C134.073 17.8995 134.277 18.159 134.436 18.5338L135.67 21.1296H137.803H138.296H140.226L141.053 19.2694H145.261L146.088 21.1296H148.526H148.54H151.181L152.85 18.2166C152.966 18.0148 153.111 17.8706 153.27 17.7985C153.445 17.7263 153.633 17.6831 153.865 17.6831H154.591V21.1439H156.999V11.8574H152.371ZM143.099 14.3665H143.171L144.463 17.4092H141.822L143.099 14.3665ZM154.562 15.9815H152.806C151.805 15.9815 151.297 15.6066 151.297 14.8568C151.297 14.0925 151.805 13.7032 152.806 13.7032H154.562V15.9815Z" fill="#0575D5"/>
<path d="M71.5865 27.0366C72.0188 27.0366 72.3933 27.0943 72.7389 27.2097C73.0703 27.325 73.4449 27.527 73.8482 27.8155L74.5829 25.9116C74.2084 25.5944 73.7761 25.3492 73.2432 25.1761C72.7246 25.003 72.1484 24.9165 71.5001 24.9165C70.4917 24.9165 69.6274 25.1185 68.8927 25.5078C68.1581 25.8972 67.5962 26.4598 67.1929 27.1665C66.7896 27.8731 66.6023 28.7241 66.6023 29.6905C66.6023 30.6567 66.804 31.5077 67.1929 32.2289C67.5962 32.9501 68.1581 33.4981 68.8927 33.9019C69.6274 34.3057 70.5061 34.4932 71.5001 34.4932C72.134 34.4932 72.7102 34.4067 73.2288 34.2336C73.7618 34.0605 74.1939 33.8153 74.5685 33.4981L73.8339 31.5942C73.4305 31.8827 73.056 32.0847 72.7246 32.2C72.3933 32.3154 72.0043 32.3731 71.5722 32.3731C70.7799 32.3731 70.1748 32.1423 69.7571 31.6807C69.325 31.2193 69.1233 30.5557 69.1233 29.7049C69.1233 28.8395 69.3393 28.1904 69.7571 27.729C70.1892 27.2529 70.7943 27.0366 71.5865 27.0366Z" fill="#0575D5"/>
<path d="M83.1246 33.6115C83.7217 33.1205 84.0129 32.4272 84.0129 31.5172C84.0129 30.5929 83.7217 29.8998 83.1246 29.4088C82.5275 28.9321 81.712 28.6866 80.6637 28.6866H78.2171V26.9101H83.0372V25.0615H75.8872V34.348H80.649C81.712 34.348 82.5275 34.1025 83.1246 33.6115ZM78.2318 32.5283V30.492H80.3433C80.8239 30.492 81.1878 30.5786 81.3916 30.7518C81.6102 30.9252 81.712 31.1707 81.712 31.5029C81.712 31.8495 81.6102 32.095 81.3916 32.2683C81.1733 32.4417 80.8239 32.5283 80.3433 32.5283H78.2318Z" fill="#0575D5"/>
<path d="M85.3208 25.0615V34.348H89.6676C90.7142 34.348 91.5284 34.1025 92.1243 33.6115C92.7204 33.1205 93.0112 32.4272 93.0112 31.5172C93.0112 30.5929 92.7204 29.8998 92.1243 29.4088C91.5284 28.9321 90.7142 28.6866 89.6676 28.6866H87.7486V25.0615H85.3208ZM89.3331 30.4774C89.8129 30.4774 90.1763 30.5641 90.3799 30.7375C90.598 30.9107 90.6997 31.1707 90.6997 31.5172C90.6997 31.8639 90.598 32.1094 90.3799 32.2828C90.1618 32.456 89.8129 32.5283 89.3331 32.5283H87.7486V30.4774H89.3331Z" fill="#0575D5"/>
<path d="M96.4946 25.0615H94.0278V34.348H96.4946V25.0615Z" fill="#0575D5"/>
<path d="M100.357 34.348H102.785V27.0258H105.634V25.0615H97.5083V27.0258H100.357V34.348Z" fill="#0575D5"/>
<path d="M113.134 25.5069C112.437 25.1037 111.594 24.9165 110.62 24.9165C109.661 24.9165 108.818 25.1182 108.121 25.5069C107.409 25.9102 106.871 26.4575 106.493 27.1775C106.115 27.8975 105.926 28.7328 105.926 29.6976C105.926 30.6482 106.115 31.4834 106.493 32.2035C106.871 32.9235 107.409 33.4852 108.121 33.8884C108.833 34.2917 109.661 34.4932 110.62 34.4932C111.594 34.4932 112.437 34.2917 113.134 33.8884C113.847 33.4852 114.384 32.9235 114.777 32.2179C115.154 31.4977 115.358 30.6625 115.358 29.6976C115.358 28.7328 115.169 27.8975 114.777 27.1775C114.37 26.4718 113.832 25.9102 113.134 25.5069ZM112.248 31.7138C111.885 32.2035 111.347 32.4483 110.62 32.4483C109.894 32.4483 109.356 32.2035 109.007 31.7138C108.658 31.2242 108.484 30.5473 108.484 29.6832C108.484 28.8192 108.658 28.1424 109.007 27.6671C109.356 27.1918 109.894 26.9471 110.62 26.9471C111.347 26.9471 111.885 27.1918 112.248 27.6816C112.611 28.1711 112.786 28.8337 112.786 29.6976C112.786 30.5473 112.611 31.2242 112.248 31.7138Z" fill="#0575D5"/>
<path d="M124.516 27.4734C124.516 26.7369 124.242 26.1447 123.681 25.7114C123.119 25.2782 122.341 25.0615 121.304 25.0615H116.809V34.348H121.448C122.485 34.348 123.291 34.1169 123.897 33.6404C124.501 33.1637 124.79 32.5283 124.79 31.705C124.79 31.084 124.617 30.5786 124.257 30.1885C123.954 29.8709 123.536 29.6543 123.032 29.5243C123.436 29.3654 123.781 29.1633 124.041 28.8455C124.358 28.47 124.516 28.0078 124.516 27.4734ZM119.128 26.838H120.857C121.318 26.838 121.649 26.9101 121.865 27.069C122.081 27.2279 122.197 27.459 122.197 27.7912C122.197 28.1089 122.081 28.3545 121.865 28.5132C121.649 28.6721 121.304 28.7443 120.857 28.7443H119.128V26.838ZM122.139 32.326C121.923 32.4849 121.577 32.5716 121.116 32.5716H119.114V30.5208H121.116C121.577 30.5208 121.909 30.6075 122.139 30.7663C122.37 30.9396 122.47 31.1996 122.47 31.5606C122.47 31.9073 122.37 32.1672 122.139 32.326Z" fill="#0575D5"/>
<path d="M140.222 30.9973C140.396 30.9252 140.584 30.8818 140.816 30.8818H141.54V34.348H143.943V25.0615H139.368C138.297 25.0615 137.457 25.3215 136.878 25.8269C136.285 26.3325 135.995 27.0401 135.995 27.9644C135.995 28.8598 136.285 29.5675 136.878 30.0876C137.225 30.3908 137.66 30.5929 138.166 30.723C138.022 30.7663 137.877 30.8241 137.747 30.8962C137.457 31.0696 137.211 31.344 136.994 31.7195L135.503 34.3335L131.145 25.0615H129.118L124.79 34.348H127.207L128.032 32.4849H132.231L133.056 34.348H135.488H135.503H138.138L139.802 31.4306C139.918 31.214 140.063 31.084 140.222 30.9973ZM130.117 27.5745H130.19L131.478 30.6218H128.843L130.117 27.5745ZM138.282 28.0511C138.282 27.2856 138.789 26.8958 139.788 26.8958H141.54V29.1921H139.788C138.789 29.1776 138.282 28.8021 138.282 28.0511Z" fill="#0575D5"/>
<path d="M72.932 42.7572C72.787 42.6417 72.6277 42.5695 72.4539 42.4683L75.2498 38.2656H72.5988L70.2955 41.9918H69.3104V38.2656H66.8911V47.5521H69.3104V43.9271H70.252C70.672 43.9271 71.0197 43.9993 71.2661 44.1582C71.5268 44.3171 71.7295 44.577 71.889 44.9525L73.1203 47.5521H75.7423L74.0474 44.1582C73.7142 43.566 73.3521 43.1039 72.932 42.7572Z" fill="#0575D5"/>
<path d="M83.2437 38.711C82.5462 38.3078 81.7033 38.1206 80.7297 38.1206C79.7706 38.1206 78.9277 38.3223 78.23 38.711C77.518 39.1143 76.9803 39.6616 76.6024 40.3816C76.2246 41.1016 76.0356 41.9369 76.0356 42.9017C76.0356 43.8523 76.2246 44.6875 76.6024 45.4076C76.9803 46.1276 77.5325 46.6893 78.23 47.0925C78.9422 47.4958 79.7706 47.6973 80.7297 47.6973C81.7033 47.6973 82.5462 47.4958 83.2437 47.0925C83.9559 46.6893 84.4936 46.1276 84.886 45.422C85.2638 44.7018 85.4673 43.8666 85.4673 42.9017C85.4673 41.9369 85.2783 41.1016 84.886 40.3816C84.4936 39.676 83.9414 39.1143 83.2437 38.711ZM82.3573 44.9179C81.994 45.4076 81.4562 45.6524 80.7297 45.6524C80.003 45.6524 79.4653 45.4076 79.1166 44.9179C78.7678 44.4283 78.5788 43.7514 78.5788 42.8873C78.5788 42.0233 78.7532 41.3465 79.1166 40.8712C79.4653 40.3959 80.003 40.1512 80.7297 40.1512C81.4562 40.1512 81.994 40.3959 82.3573 40.8857C82.7206 41.3752 82.895 42.0378 82.895 42.9017C82.9095 43.7514 82.7206 44.4283 82.3573 44.9179Z" fill="#0575D5"/>
<path d="M91.8553 44.5868L89.0381 38.2656H86.9146V47.5521H89.1249V43.1837L91.1473 47.5521H92.5198L94.5711 43.1403V47.5521H96.7815V38.2656H94.6723L91.8553 44.5868Z" fill="#0575D5"/>
<path d="M98.5239 47.5521H100.931V40.2184H104.678V47.5521H107.085V38.2656H98.5239V47.5521Z" fill="#0575D5"/>
<path d="M112.142 38.2656L107.809 47.5521H110.229L111.055 45.689H115.272L116.098 47.5521H118.547L114.17 38.2656H112.142ZM113.127 40.7786H113.2L114.489 43.8259H111.852L113.127 40.7786Z" fill="#0575D5"/>
<path d="M125.371 41.8673H121.594V38.2656H119.129V47.5521H121.594V43.8346H125.371V47.5521H127.835V38.2656H125.371V41.8673Z" fill="#0575D5"/>
<path d="M131.698 43.719V38.2656H129.43V47.5521H131.218L135.593 42.0844V47.5521H137.846V38.2656H136.058L131.698 43.719Z" fill="#0575D5"/>
<path d="M140.392 39.0173C139.801 39.5227 139.513 40.2303 139.513 41.1546C139.513 42.0499 139.801 42.7576 140.392 43.2775C140.738 43.5807 141.17 43.7828 141.674 43.9129C141.53 43.9562 141.386 44.014 141.256 44.0863C140.968 44.2595 140.723 44.5339 140.507 44.9094L139.008 47.5376H141.646L143.303 44.6205C143.418 44.4184 143.562 44.2739 143.721 44.2018C143.879 44.1295 144.081 44.0863 144.311 44.0863H145.032V47.5521H147.424V38.2662H142.87C141.818 38.2519 140.983 38.4974 140.392 39.0173ZM145.046 40.0714V42.3677H143.303C142.308 42.3677 141.804 41.9921 141.804 41.2412C141.804 40.4758 142.308 40.0859 143.303 40.0859H145.046V40.0714Z" fill="#0575D5"/>
</svg>
